<svg width="420" height="420" viewBox="0 0 420 420" fill="none" xmlns="http://www.w3.org/2000/svg">
<rect width="420" height="420" rx="100" fill="url(#paint0_linear_12_6)"/>
<path d="M295 255C295 273.6 289.7 289.5 279.1 302.7C268.5 315.9 253.2 322.5 233.2 322.5C209.5 322.5 190.7 314.7 176.8 299.1C162.9 283.5 155.9 261.2 155.9 232.2V187.8C155.9 158.8 162.9 136.5 176.8 120.9C190.7 105.3 209.5 97.5 233.2 97.5C253.2 97.5 268.5 104.1 279.1 117.3C289.7 130.5 295 146.4 295 165H252.6C252.6 155.4 250.3 148 245.7 142.8C241.1 137.6 235.3 135 228.3 135C221.7 135 216.5 137.6 212.7 142.8C208.9 148 207 155.4 207 165V255C207 264.6 208.9 272 212.7 277.2C216.5 282.4 221.7 285 228.3 285C235.3 285 241.1 282.4 245.7 277.2C250.3 272 252.6 264.6 252.6 255H295Z" fill="white"/>
<defs>
<linearGradient id="paint0_linear_12_6" x1="0" y1="0" x2="420" y2="420" gradientUnits="userSpaceOnUse">
<stop stop-color="#07E9FF"/>
<stop offset="1" stop-color="#398EFC"/>
</linearGradient>
</defs>
</svg>

